<?xml version="1.0" standalone="no"?>
<!DOCTYPE svg PUBLIC "-//W3C//DTD SVG 20010904//EN"
 "http://www.w3.org/TR/2001/REC-SVG-20010904/DTD/svg10.dtd">
<svg version="1.0" xmlns="http://www.w3.org/2000/svg"
 width="512.000000pt" height="512.000000pt" viewBox="0 0 512.000000 512.000000"
 preserveAspectRatio="xMidYMid meet">
<metadata>
Created by potrace 1.11, written by Peter Selinger 2001-2013
</metadata>
<g transform="translate(0.000000,512.000000) scale(0.100000,-0.100000)"
fill="#000000" stroke="none">
<path d="M2347 5110 c-501 -49 -928 -212 -1327 -509 -150 -111 -390 -351 -501
-501 -266 -357 -423 -733 -490 -1172 -32 -203 -32 -531 0 -738 12 -80 25 -148
29 -152 4 -4 689 674 1521 1506 832 832 1509 1516 1504 1519 -5 3 -72 15 -149
27 -158 23 -452 33 -587 20z m-756 -560 c18 -168 5 -154 158 -170 73 -7 130
-14 128 -17 -2 -2 -62 -10 -133 -19 -70 -8 -130 -16 -132 -19 -2 -2 -10 -59
-18 -127 -14 -124 -21 -160 -24 -123 -3 48 -28 247 -32 250 -2 2 -62 11 -132
19 -71 9 -131 17 -133 19 -2 3 55 10 127 17 100 10 133 17 139 29 5 9 11 50
15 91 10 105 18 171 22 168 2 -2 8 -55 15 -118z m-921 -1415 l34 -35 -37 -38
-37 -37 -37 37 -37 38 34 35 c19 19 37 35 40 35 3 0 21 -16 40 -35z"/>
<path d="M1631 3486 l-1553 -1553 27 -89 c46 -155 94 -275 172 -432 42 -84 79
-154 82 -157 4 -2 150 139 325 314 l319 319 -13 130 -13 130 -111 11 c-172 18
-175 23 -26 40 l135 16 16 135 c17 149 22 146 40 -26 l11 -111 130 -13 130
-13 442 442 442 442 29 -31 30 -31 -918 -917 c-862 -861 -917 -918 -906 -939
7 -12 44 -65 83 -117 217 -288 450 -498 759 -681 282 -168 594 -279 937 -332
162 -25 558 -25 720 0 337 53 656 164 929 326 210 125 358 238 523 404 401
402 661 941 729 1512 18 145 15 475 -5 623 -59 434 -219 837 -469 1177 -33 44
-61 82 -63 85 -3 2 -316 -307 -697 -688 l-693 -693 -29 31 -29 31 693 693 694
694 -31 39 c-52 65 -222 226 -327 309 -250 198 -546 352 -851 444 -55 16 -101
30 -104 30 -3 0 -704 -699 -1559 -1554z m1742 1142 l-37 -38 -38 37 -38 37 37
38 37 38 38 -37 38 -37 -37 -38z m812 -1505 c50 -6 107 -12 128 -12 78 -2 32
-18 -85 -30 -67 -7 -125 -14 -129 -17 -4 -2 -12 -63 -19 -135 -14 -140 -24
-148 -34 -29 -3 41 -9 96 -12 121 l-6 47 -129 13 c-72 7 -126 15 -122 19 4 4
62 13 128 20 66 6 121 13 122 13 0 1 6 47 12 102 20 181 23 183 40 35 l16
-135 90 -12z m785 -568 l34 -35 -37 -38 -37 -37 -37 37 -37 38 34 35 c19 19
37 35 40 35 3 0 21 -16 40 -35z m-1336 -646 l-327 -327 -36 10 c-20 6 -38 12
-41 14 -2 3 149 157 335 344 l339 340 28 -27 29 -27 -327 -327z m663 309 l33
-32 -37 -38 -37 -38 -38 37 -38 37 32 33 c18 18 36 33 42 33 6 0 25 -14 43
-32z m-1137 -103 l34 -35 -37 -38 -37 -37 -37 37 -37 38 34 35 c19 19 37 35
40 35 3 0 21 -16 40 -35z"/>
<path d="M1124 2158 l-82 -10 -12 -114 c-7 -63 -11 -117 -8 -119 2 -2 62 54
133 125 l130 130 -40 -1 c-22 -1 -77 -6 -121 -11z"/>
</g>
</svg>
